<?xml version="1.0"?>
<svg xmlns="http://www.w3.org/2000/svg" id="Capa_1" enable-background="new 0 0 512 512" height="25px" viewBox="0 0 512 512" width="30px"><g transform="matrix(-1 0 0 1 512 0)"><g><g><path d="m393.926 237.559c0-93.502-98.562-154.79-196.963-154.79-98.794 0-196.963 61.576-196.963 154.79 0 35.265 15.445 69.75 43.491 97.104 1.073 1.047 1.484 2.636 1.072 4.146-8.809 32.271-29.673 61.423-38.234 72.459-2.663 3.433-3.101 7.973-1.142 11.85 1.915 3.791 5.701 6.113 9.931 6.113.096 0 .191-.001.287-.003 41.893-1.045 90.452-12.869 120.468-42.379 1.049-1.032 2.554-1.44 4.028-1.089 18.442 4.374 37.641 6.591 57.062 6.591 98.765-.002 196.963-61.553 196.963-154.792zm-250.564 133.604c-6.521-1.549-13.254.317-18.005 4.988-30.017 29.513-79.032 36.222-102.235 37.713 10.599-14.631 27.832-41.502 35.912-71.106 1.847-6.766-.096-13.982-5.07-18.834-25.49-24.861-38.964-54.726-38.964-86.365 0-77.08 81.628-139.79 181.963-139.79s181.963 62.709 181.963 139.79-81.628 139.79-181.963 139.79c-18.257 0-36.29-2.082-53.601-6.186z" data-original="#16a5d2" class="active-path" fill="#16a5d2"/><path d="m80.258 210.733c-14.333 0-25.993 11.661-25.993 25.993s11.66 25.993 25.993 25.993 25.993-11.661 25.993-25.993-11.66-25.993-25.993-25.993zm0 36.987c-6.062 0-10.993-4.932-10.993-10.993s4.932-10.993 10.993-10.993 10.993 4.932 10.993 10.993-4.932 10.993-10.993 10.993z" data-original="#16a5d2" class="active-path" fill="#16a5d2"/><path d="m154.411 210.733c-14.333 0-25.993 11.661-25.993 25.993s11.66 25.993 25.993 25.993 25.993-11.661 25.993-25.993-11.66-25.993-25.993-25.993zm0 36.987c-6.062 0-10.993-4.932-10.993-10.993s4.932-10.993 10.993-10.993 10.993 4.932 10.993 10.993-4.931 10.993-10.993 10.993z" data-original="#16a5d2" class="active-path" fill="#16a5d2"/><path d="m228.563 210.733c-14.333 0-25.993 11.661-25.993 25.993s11.66 25.993 25.993 25.993 25.993-11.661 25.993-25.993-11.66-25.993-25.993-25.993zm0 36.987c-6.062 0-10.993-4.932-10.993-10.993s4.932-10.993 10.993-10.993 10.993 4.932 10.993 10.993-4.931 10.993-10.993 10.993z" data-original="#16a5d2" class="active-path" fill="#16a5d2"/><path d="m302.717 210.733c-14.333 0-25.993 11.661-25.993 25.993s11.66 25.993 25.993 25.993 25.993-11.661 25.993-25.993-11.66-25.993-25.993-25.993zm0 36.987c-6.062 0-10.993-4.932-10.993-10.993s4.932-10.993 10.993-10.993 10.993 4.932 10.993 10.993-4.932 10.993-10.993 10.993z" data-original="#16a5d2" class="active-path" fill="#16a5d2"/></g></g></g> </svg>
